{"accessors" : [{"bufferView" : 0, "byteOffset" : 0, "componentType" : 5123, "count" : 528, "type" : "SCALAR", "max" : [527], "min" : [0]}, {"bufferView" : 1, "byteOffset" : 0, "componentType" : 5126, "count" : 528, "type" : "VEC3", "max" : [48.036128997802734, 48.03614044189453, 10.501415252685547], "min" : [-48.036136627197266, -48.036128997802734, 0], "name" : "POSITION"}, {"bufferView" : 1, "byteOffset" : 12, "componentType" : 5126, "count" : 528, "type" : "VEC3", "max" : [0.8595982193946838, 0.8485485315322876, 0.9991106390953064], "min" : [-0.8595982789993286, -0.8485479354858398, -0.9473564624786377], "name" : "NORMAL"}, {"bufferView" : 1, "byteOffset" : 24, "componentType" : 5126, "count" : 528, "type" : "VEC2", "max" : [0.9930164813995361, -0.007381541654467583], "min" : [0.0087098004296422, -0.9914622902870178], "name" : "TEXCOORD_0"}, {"bufferView" : 0, "byteOffset" : 1056, "componentType" : 5123, "count" : 114, "type" : "SCALAR", "max" : [113], "min" : [0]}, {"bufferView" : 2, "byteOffset" : 0, "componentType" : 5126, "count" : 114, "type" : "VEC3", "max" : [9.75422477722168, 30.85242462158203, 6.076364994049072], "min" : [-18.108531951904297, -36.2103271484375, -0.6165108680725098], "name" : "POSITION"}, {"bufferView" : 2, "byteOffset" : 12, "componentType" : 5126, "count" : 114, "type" : "VEC3", "max" : [0.7399658560752869, 0.322324275970459, 0.9833524227142334], "min" : [-0.4604935050010681, -0.31797441840171814, 0.6684879660606384], "name" : "NORMAL"}, {"bufferView" : 2, "byteOffset" : 24, "componentType" : 5126, "count" : 114, "type" : "VEC2", "max" : [0.4396366775035858, -0.7884536385536194], "min" : [0.011179054155945778, -0.9810718894004822], "name" : "TEXCOORD_0"}], "asset" : {"generator" : "Aspose.3D 22.10", "version" : "2.0"}, "buffers" : [{"uri" : "data:application/octet-stream;base64,", "byteLength" : 21840}], "bufferViews" : [{"buffer" : 0, "byteOffset" : 0, "byteLength" : 1284, "target" : 34963}, {"buffer" : 0, "byteOffset" : 1288, "byteLength" : 16896, "byteStride" : 32, "target" : 34962}, {"buffer" : 0, "byteOffset" : 18188, "byteLength" : 3648, "byteStride" : 32, "target" : 34962}], "images" : [{"uri" : "data:image/png;base64,"}], "materials" : [{"name" : "04 - Default", "pbrMetallicRoughness" : {"baseColorFactor" : [0.5882353186607361, 0.5882353186607361, 0.5882353186607361, 1], "baseColorTexture" : {"index" : 0, "texCoord" : 0}, "metallicFactor" : 0, "roughnessFactor" : 0}, "emissiveFactor" : [0, 0, 0], "alphaMode" : "OPAQUE", "doubleSided" : false}, {"name" : "04 - Default", "pbrMetallicRoughness" : {"baseColorFactor" : [0.5882353186607361, 0.5882353186607361, 0.5882353186607361, 1], "baseColorTexture" : {"index" : 0, "texCoord" : 0}, "metallicFactor" : 0, "roughnessFactor" : 0}, "emissiveFactor" : [0, 0, 0], "alphaMode" : "OPAQUE", "doubleSided" : false}], "meshes" : [{"primitives" : [{"attributes" : {"POSITION" : 1, "NORMAL" : 2, "TEXCOORD_0" : 3}, "indices" : 0, "material" : 0, "mode" : 4}], "name" : ""}, {"primitives" : [{"attributes" : {"POSITION" : 5, "NORMAL" : 6, "TEXCOORD_0" : 7}, "indices" : 4, "material" : 1, "mode" : 4}], "name" : ""}], "nodes" : [{"matrix" : [-0.4226183289610029, -0.9063077556913046, 0, 0, 0.9063077556913046, -0.4226183289610029, 0, 0, 0, 0, 1, 0, -1.7242794036865234, 0.00819680467247963, 0, 1], "mesh" : 0, "name" : "Napan_Beras"}, {"matrix" : [1, 0, 0, 0, 0, 1, 0, 0, 0, 0, 1, 0, -22.97402000427246, 2.6648569107055664, 1.529052734375, 1], "mesh" : 1, "name" : "Rice_01"}], "samplers" : [{"magFilter" : 9729, "minFilter" : 9729, "wrapS" : 10497, "wrapT" : 10497}], "scene" : 0, "scenes" : [{"nodes" : [0, 1]}], "textures" : [{"sampler" : 0, "source" : 0, "name" : "Map #15"}]}